<?xml version="1.0" standalone="no"?>
<!DOCTYPE svg PUBLIC "-//W3C//DTD SVG 20010904//EN"
 "http://www.w3.org/TR/2001/REC-SVG-20010904/DTD/svg10.dtd">
<svg version="1.0" xmlns="http://www.w3.org/2000/svg"
 width="300.000000pt" height="300.000000pt" viewBox="0 0 300.000000 300.000000"
 preserveAspectRatio="xMidYMid meet">
<metadata>
Created by potrace 1.11, written by Peter Selinger 2001-2013
</metadata>
<g transform="translate(0.000000,300.000000) scale(0.100000,-0.100000)"
fill="#000000" stroke="none">
<path d="M0 1500 l0 -1500 1500 0 1500 0 0 1500 0 1500 -1500 0 -1500 0 0
-1500z m2880 0 l0 -1380 -1380 0 -1380 0 0 1380 0 1380 1380 0 1380 0 0 -1380z"/>
<path d="M545 1992 c-2 -7 -5 -231 -5 -498 0 -453 1 -484 18 -485 23 -1 211
-1 240 0 l22 1 0 243 c1 192 3 239 13 226 30 -39 73 -93 82 -103 11 -12 177
-218 223 -276 15 -19 41 -48 57 -65 31 -32 41 -33 220 -26 20 1 20 7 18 493 0
271 -2 495 -2 498 -1 3 -63 5 -138 5 l-138 0 1 -247 c1 -137 -2 -248 -5 -247
-3 0 -82 99 -176 220 -237 306 -199 273 -321 274 -78 1 -105 -2 -109 -13z"/>
<path d="M1565 2001 c6 -5 42 -25 80 -45 39 -19 76 -39 82 -44 9 -6 -2 -23
-40 -63 -115 -119 -167 -316 -122 -465 8 -27 14 -49 14 -49 0 0 4 -12 10 -28
18 -47 76 -130 122 -175 46 -44 153 -106 204 -116 17 -4 41 -9 55 -12 50 -11
115 -12 134 -2 12 7 16 7 12 0 -12 -20 141 35 201 71 63 39 134 108 171 168
27 44 72 166 64 173 -2 3 1 13 9 23 12 14 12 16 0 8 -11 -6 -12 -5 -5 6 13 21
14 39 1 39 -9 0 -9 2 0 8 9 6 12 67 3 67 -1 0 -6 23 -13 60 -2 11 -13 42 -25
69 -12 27 -22 50 -22 53 0 2 -18 28 -39 57 -67 90 -149 149 -261 185 -54 18
-89 20 -352 21 -185 0 -289 -3 -283 -9z m540 -241 c0 -1 8 -3 18 -5 36 -7 96
-55 121 -97 47 -81 50 -205 7 -294 -39 -79 -113 -123 -201 -119 -66 3 -95 14
-138 50 -53 45 -77 107 -77 200 1 92 6 135 17 135 4 0 8 5 8 12 0 36 76 101
138 117 20 6 107 7 107 1z"/>
</g>
</svg>
