<svg xmlns="http://www.w3.org/2000/svg" viewBox="0 0 889 76" width="889" height="76">
	<style>
		tspan { white-space:pre }
		.nomadic-shp0 { opacity: 0.996; fill: #000000 }
		.nomadic-txt1 { fill: #000000; font-size: 98px;font-family: "Raleway";font-weight: 200 }
	</style>
	<path id="Path 0" fill-rule="evenodd" class="nomadic-shp0" d="M109 3.79C112.03 4.03 116.53 4.85 119 5.6C121.47 6.35 125.75 8.68 128.5 10.76C131.25 12.85 134.99 16.79 136.81 19.53C138.64 22.26 140.83 26.98 141.69 30C142.73 33.65 143.1 37.86 142.79 42.5C142.45 47.52 141.5 51.16 139.41 55.39C137.6 59.06 134.43 63.14 131 66.21C127.95 68.95 123.05 72.09 120 73.26C116.23 74.72 112.13 75.4 106.95 75.44C100.19 75.49 98.58 75.1 91.7 71.75C86.38 69.16 82.94 66.69 80.57 63.75C78.68 61.41 75.9 56.8 74.38 53.5C72.09 48.54 71.61 46.11 71.6 39.5C71.59 32.66 72.03 30.56 74.64 25C76.32 21.42 79.11 17.04 80.84 15.25C82.58 13.46 83.78 11.55 83.5 11C83.22 10.45 80.64 8.76 72.5 4.5L88 3.92C96.53 3.6 105.97 3.54 109 3.79ZM93.24 30.01C91.8 32.88 90.98 36.3 90.98 39.5C90.98 42.7 91.8 46.12 93.24 48.99C94.48 51.46 97.08 54.51 99 55.77C101.49 57.4 103.94 58.05 107.5 58.02C110.7 58 113.67 57.27 115.75 56C117.54 54.9 119.98 52.09 121.17 49.75C122.67 46.81 123.35 43.65 123.36 39.5C123.38 35.16 122.78 32.39 121.19 29.5C119.98 27.3 117.3 24.5 115.24 23.28C112.89 21.89 109.81 21.05 106.93 21.03C103.83 21.01 101.26 21.72 98.93 23.26C97.04 24.5 94.48 27.54 93.24 30.01ZM442.5 3.73C444.7 3.99 448.3 4.64 450.5 5.18C452.7 5.73 456.52 7.45 459 9.02C461.48 10.59 464.51 13.25 465.75 14.93C466.99 16.62 468.01 18.34 468.03 18.75C468.05 19.16 464.9 21.75 454.03 29.5L451.77 26.57C450.52 24.96 448.04 23.05 446.25 22.32C444.46 21.6 441.09 20.99 438.75 20.97C435.97 20.95 433.29 21.74 431 23.23C429.07 24.49 426.48 27.54 425.24 30.01C423.8 32.88 422.98 36.3 422.98 39.5C422.98 42.7 423.8 46.12 425.24 48.99C426.48 51.46 429.07 54.51 431 55.77C433.43 57.36 435.95 58.05 439.25 58.03C441.86 58.01 445.35 57.33 447 56.5C448.65 55.67 450.9 53.88 454 50L461.5 54.5C465.63 56.98 468.99 59.34 468.97 59.75C468.96 60.16 467.83 61.96 466.47 63.75C465.11 65.54 462.31 68.13 460.25 69.51C458.19 70.89 453.13 72.9 449 73.99C444.88 75.08 440.15 75.97 438.5 75.97C436.85 75.98 433.25 75.29 430.5 74.45C427.75 73.61 423.7 71.87 421.5 70.59C419.3 69.31 415.33 65.84 412.69 62.88C410.04 59.92 407.04 55.25 406.02 52.5C405.01 49.75 403.86 45.25 403.48 42.5C403 39.08 403.31 35.45 404.44 31C405.35 27.42 407.54 22.29 409.3 19.59C411.06 16.89 413.85 13.58 415.5 12.22C417.15 10.86 420.64 8.68 423.25 7.37C425.86 6.07 430.36 4.61 433.25 4.13C436.14 3.66 440.3 3.48 442.5 3.73ZM0 4L15.5 4.09L43.5 39.5L43.87 4L63 4L63 75L47.5 74.88L34 58.02C26.57 48.75 20.16 41.35 19.75 41.58C19.34 41.81 19 49.42 19 75L0 75L0 4ZM152 4L173.5 4.04L181 20.49C185.13 29.54 188.72 36.69 189 36.38C189.28 36.07 192.75 28.77 203.92 4.5L225 4L225 75L206 75L205.82 38.5L193.5 64.04L188.25 64.02C185.36 64.01 183 63.55 183 63C183 62.45 180.64 57.04 177.75 50.97C174.86 44.9 172.16 39.95 171.75 39.97C171.34 39.99 171 47.88 171 75L152 75L152 4ZM255.49 3.93L273.5 4.5L278.15 18C280.71 25.43 286.22 41.29 298 75L278 75L274 61L254.72 61.5L250.5 75.05L240.75 75.03C233.44 75.01 231.09 74.69 231.36 73.75C231.55 73.06 237.06 57.07 243.6 38.22L255.49 3.93ZM258.44 46.25C258.05 47.78 258.81 48 264.5 48L271 48C266.2 32.11 264.73 27.35 264.63 27.17C264.53 26.99 263.2 30.81 261.66 35.67C260.13 40.53 258.68 45.29 258.44 46.25ZM304.19 3.81L322.85 4.17C341.1 4.52 341.64 4.59 347.91 7.51C352.2 9.51 355.78 12.16 358.74 15.5C361.98 19.17 363.71 22.36 365.23 27.5C366.85 33 367.19 36.22 366.79 42.5C366.4 48.58 365.59 51.91 363.39 56.38C361.8 59.61 358.7 63.86 356.5 65.82C354.3 67.78 350.02 70.53 347 71.94C341.8 74.35 340.47 74.5 304 75L304.19 3.81ZM323 58C333.45 58.01 336.65 57.39 339 56.14C341.12 55 343.4 52.54 344.79 49.88C346.45 46.72 347.08 43.83 347.08 39.5C347.07 35.23 346.41 32.22 344.78 29.07C343.35 26.29 341.19 23.96 339 22.81C336.7 21.62 333.36 20.99 329.25 21L323 21L323 58ZM376 4L395 4L395 75L376 75L376 4Z" />
	<text id="software " style="transform: matrix(1,0,0,1,500,73)" >
		<tspan x="0" y="0" class="nomadic-txt1">software</tspan>
	</text>
</svg>
